<svg width="20" height="20" viewBox="0 0 20 20" fill="none" xmlns="http://www.w3.org/2000/svg">
<path fill-rule="evenodd" clip-rule="evenodd" d="M16.6665 3.33398H3.33317C2.4165 3.33398 1.67484 4.08398 1.67484 5.00065L1.6665 15.0007C1.6665 15.9173 2.4165 16.6673 3.33317 16.6673H16.6665C17.5832 16.6673 18.3332 15.9173 18.3332 15.0007V5.00065C18.3332 4.08398 17.5832 3.33398 16.6665 3.33398ZM16.6665 14.1673C16.6665 14.6257 16.2915 15.0007 15.8332 15.0007H4.1665C3.70817 15.0007 3.33317 14.6257 3.33317 14.1673V6.66732L9.1165 10.284C9.65817 10.6257 10.3415 10.6257 10.8832 10.284L16.6665 6.66732V14.1673ZM3.33317 5.00065L9.99984 9.16732L16.6665 5.00065H3.33317Z" fill="url(#paint0_radial)"/>
<defs>
<radialGradient id="paint0_radial" cx="0" cy="0" r="1" gradientUnits="userSpaceOnUse" gradientTransform="translate(16.7072 -2.49935) rotate(105.088) scale(20.8867 10.9769)">
<stop stop-color="#027FFF"/>
<stop offset="1" stop-color="#0C2F83"/>
</radialGradient>
</defs>
</svg>
