<svg width="48" height="39" viewBox="0 0 48 39" fill="none" xmlns="http://www.w3.org/2000/svg">
<path d="M47.18 29.4C47.18 32.16 46.28 34.38 44.48 36.06C42.68 37.62 40.4 38.4 37.64 38.4C34.4 38.4 31.7 37.32 29.54 35.16C27.5 33 26.48 29.82 26.48 25.62C26.48 21.66 27.02 18.3 28.1 15.54C29.3 12.66 30.68 10.26 32.24 8.33999C33.92 6.3 35.6 4.68 37.28 3.47999C39.08 2.27999 40.64 1.43999 41.96 0.95999L46.46 7.25999C43.82 8.57999 41.66 10.38 39.98 12.66C38.42 14.82 37.64 17.58 37.64 20.94C38.12 20.82 38.78 20.76 39.62 20.76C42.02 20.76 43.88 21.6 45.2 23.28C46.52 24.96 47.18 27 47.18 29.4ZM20.9 29.4C20.9 32.16 20 34.38 18.2 36.06C16.4 37.62 14.12 38.4 11.36 38.4C8.12 38.4 5.42 37.32 3.26 35.16C1.22 33 0.200001 29.82 0.200001 25.62C0.200001 21.66 0.74 18.3 1.82 15.54C3.02 12.66 4.4 10.26 5.96 8.33999C7.64 6.3 9.32 4.68 11 3.47999C12.8 2.27999 14.36 1.43999 15.68 0.95999L20.18 7.25999C17.54 8.57999 15.38 10.38 13.7 12.66C12.14 14.82 11.36 17.58 11.36 20.94C11.84 20.82 12.5 20.76 13.34 20.76C15.74 20.76 17.6 21.6 18.92 23.28C20.24 24.96 20.9 27 20.9 29.4Z" fill="white"/>
</svg>
