<svg width="20" height="20" viewBox="0 0 20 20" fill="none" xmlns="http://www.w3.org/2000/svg">
<path fill-rule="evenodd" clip-rule="evenodd" d="M13.9015 12.4823L16.0182 12.724C16.8599 12.824 17.4932 13.5323 17.4849 14.374V15.8156C17.4849 16.7573 16.7015 17.5406 15.7599 17.4823C8.65153 17.0406 2.95986 11.3573 2.5182 4.24063C2.45986 3.29896 3.2432 2.51562 4.18486 2.51562H5.62653C6.47653 2.51562 7.18486 3.14896 7.28486 3.99063L7.52653 6.09063C7.58486 6.59896 7.40986 7.09896 7.05153 7.45729L5.50986 8.99896C6.70986 11.3656 8.6432 13.2906 11.0015 14.4906L12.5349 12.9573C12.8932 12.599 13.3932 12.424 13.9015 12.4823ZM10.7265 4.21562C13.3765 4.54896 15.4515 6.62396 15.7849 9.27396C15.8349 9.69896 16.1932 10.0073 16.6099 10.0073C16.6432 10.0073 16.6765 10.0073 16.7099 9.99896C17.1682 9.94062 17.4932 9.52396 17.4349 9.06562C17.0099 5.65729 14.3349 2.98229 10.9265 2.55729C10.4682 2.50729 10.0515 2.83229 10.0015 3.29062C9.94319 3.74896 10.2682 4.16562 10.7265 4.21562ZM11.0432 5.97396C10.6015 5.85729 10.1432 6.12396 10.0265 6.57396C9.90988 7.02396 10.1765 7.47396 10.6265 7.59062C11.5015 7.81562 12.1849 8.49896 12.4182 9.38229C12.5182 9.75729 12.8515 10.0073 13.2265 10.0073C13.2932 10.0073 13.3682 9.99896 13.4349 9.98229C13.8765 9.86562 14.1432 9.40729 14.0349 8.96562C13.6432 7.49062 12.5015 6.34896 11.0432 5.97396Z" fill="url(#paint0_radial)"/>
<defs>
<radialGradient id="paint0_radial" cx="0" cy="0" r="1" gradientUnits="userSpaceOnUse" gradientTransform="translate(16.0245 -4.03363) rotate(102.171) scale(23.1624 9.9818)">
<stop stop-color="#027FFF"/>
<stop offset="1" stop-color="#0C2F83"/>
</radialGradient>
</defs>
</svg>
