<svg width="18" height="12" viewBox="0 0 18 12" fill="none" xmlns="http://www.w3.org/2000/svg">
<path d="M0.984297 6.96203L13.9481 6.96203L11.1132 9.63944C10.7293 10.002 10.7293 10.5877 11.1132 10.9503C11.2971 11.1243 11.5467 11.2222 11.8071 11.2222C12.0675 11.2222 12.3172 11.1243 12.5011 10.9503L17.0192 6.68314C17.4031 6.32057 17.4031 5.73489 17.0192 5.37232L12.5011 1.1052C12.1172 0.742637 11.4971 0.742637 11.1132 1.1052C10.7293 1.46777 10.7293 2.05345 11.1132 2.41602L13.9481 5.10272L0.984297 5.10272C0.44291 5.10272 -4.33413e-05 5.52107 -4.33886e-05 6.03238C-4.3436e-05 6.54369 0.44291 6.96203 0.984297 6.96203Z" fill="white"/>
</svg>
