<svg width="18" height="11" viewBox="0 0 18 11" fill="none" xmlns="http://www.w3.org/2000/svg">
<path d="M0.98429 6.48927L13.9481 6.48927L11.1132 9.32417C10.7293 9.70807 10.7293 10.3282 11.1132 10.7121C11.2971 10.8964 11.5467 11 11.8071 11C12.0675 11 12.3172 10.8964 12.5011 10.7121L17.0192 6.19397C17.4031 5.81008 17.4031 5.18994 17.0192 4.80605L12.5011 0.287921C12.1172 -0.0959725 11.4971 -0.0959726 11.1132 0.28792C10.7293 0.671813 10.7293 1.29195 11.1132 1.67584L13.9481 4.52059L0.98429 4.52059C0.442902 4.52059 -5.09707e-05 4.96354 -5.1018e-05 5.50493C-5.10653e-05 6.04632 0.442902 6.48927 0.98429 6.48927Z" fill="#DC002E"/>
</svg>
