<svg width="24" height="23" viewBox="0 0 24 23" fill="none" xmlns="http://www.w3.org/2000/svg">
<path d="M21.8737 9.88873H5.11875L12.4387 2.56873C13.0237 1.98373 13.0237 1.02373 12.4387 0.438728C12.1585 0.157849 11.778 0 11.3812 0C10.9845 0 10.604 0.157849 10.3237 0.438728L0.43875 10.3237C-0.14625 10.9087 -0.14625 11.8537 0.43875 12.4387L10.3237 22.3237C10.9087 22.9087 11.8537 22.9087 12.4387 22.3237C13.0237 21.7387 13.0237 20.7937 12.4387 20.2087L5.11875 12.8887H21.8737C22.6987 12.8887 23.3737 12.2137 23.3737 11.3887C23.3737 10.5637 22.6987 9.88873 21.8737 9.88873Z" fill="url(#paint0_radial)"/>
<defs>
<radialGradient id="paint0_radial" cx="0" cy="0" r="1" gradientUnits="userSpaceOnUse" gradientTransform="translate(21.0934 -9.95859) rotate(102.488) scale(35.2625 15.5667)">
<stop stop-color="#027FFF"/>
<stop offset="1" stop-color="#0C2F83"/>
</radialGradient>
</defs>
</svg>
