<svg width="98" height="100" viewBox="0 0 98 100" fill="none" xmlns="http://www.w3.org/2000/svg">
<path d="M10.6683 76.8498C11.1687 76.9158 11.7039 76.9537 12.2746 76.9537C14.5707 76.9537 17.4392 76.3467 20.898 74.5492C21.6158 74.1762 21.8953 73.2918 21.5224 72.5739C21.1494 71.8559 20.2652 71.5762 19.5474 71.9494C11.7349 76.0094 7.98296 72.9418 7.43198 72.4239C6.42202 70.8278 5.60893 69.1992 5.12221 67.4819C2.05932 56.6748 4.85776 51.7694 7.82026 46.5758C9.32163 43.944 10.8574 41.2504 11.6767 37.8065C13.1537 40.5504 15.4066 42.7162 18.3345 44.1623C19.0613 44.5211 19.9388 44.2213 20.2962 43.4973C20.6542 42.7719 20.3568 41.8934 19.6314 41.5352C11.9324 37.733 12.5632 29.4489 12.6591 28.5266C13.9216 22.4459 18.0874 20.2949 21.2968 17.2047C21.6103 21.2127 23.6874 24.3069 27.399 26.2356C28.1167 26.6084 29.0009 26.3291 29.374 25.6112C29.7468 24.8932 29.4673 24.0088 28.7496 23.6358C20.7003 19.453 25.6685 9.5678 25.8837 9.14905C25.8859 9.14475 25.8874 9.14026 25.8898 9.13596C28.7597 4.43792 34.9199 1.94104 41.2267 3.29729C44.5501 4.01194 47.2246 7.07737 47.53 10.4114C47.5056 10.7957 47.5601 23.0184 47.5601 23.0184C46.3488 20.6358 44.9216 18.8303 43.5999 17.5026C40.1419 14.0289 36.6552 12.9639 36.5085 12.9201C35.733 12.6895 34.9177 13.1313 34.6871 13.9069C34.4564 14.6824 34.8982 15.4981 35.6736 15.7285C35.7894 15.7629 46.9511 19.2717 47.5347 35.1432C47.5337 35.1733 47.5601 66.1326 47.5601 66.1537C46.0039 64.4858 43.5349 63.0592 39.6285 62.9662C35.4718 62.8656 29.355 66.503 28.6718 66.9178C27.9804 67.3377 27.7603 68.2387 28.18 68.9303C28.5999 69.6217 29.5005 69.8424 30.1921 69.4221C31.8447 68.4184 36.7447 65.8201 39.5587 65.8953C46.0906 66.0504 47.3521 70.817 47.5335 73.5682C47.6117 74.1791 47.5601 81.2244 47.5601 81.2244C47.5601 82.0334 48.2158 82.6895 49.0248 82.6895C49.8337 82.6895 50.4894 82.0336 50.4894 81.2244V73.2701C50.7429 70.4867 52.1388 66.0449 58.4408 65.8951C61.2349 65.8328 66.1527 68.4186 67.8074 69.4219C68.499 69.842 69.3997 69.6217 69.8195 68.9301C70.2392 68.2385 70.0191 67.3375 69.3277 66.9176C68.6445 66.5028 62.5382 62.868 58.371 62.966C54.507 63.0578 52.0484 64.4545 50.4894 66.099V34.5381C51.2513 20.1948 60.8101 16.1987 62.3308 15.7268C63.1031 15.4942 63.5425 14.6803 63.3124 13.9065C63.0818 13.1311 62.2667 12.6895 61.491 12.9198C61.3443 12.9635 57.8576 14.0285 54.3996 17.5022C53.0962 18.8115 51.69 20.5852 50.4894 22.9192C50.4794 10.2373 50.5103 11.0504 50.4695 10.4104C50.7751 7.07639 53.4496 4.01155 56.773 3.2969C63.08 1.94085 69.2402 4.43753 72.1101 9.13577C72.1126 9.14065 72.1144 9.14573 72.1169 9.15081C72.1306 9.17717 73.4828 11.8149 73.7652 14.9895C74.1207 18.985 72.6017 21.8938 69.2501 23.6354C68.5324 24.0084 68.2529 24.8928 68.6257 25.6108C68.9994 26.3299 69.8841 26.6076 70.6007 26.2352C74.3123 24.3065 76.3894 21.2121 76.7029 17.2043C77.648 18.1143 78.6632 18.9336 79.6554 19.786C80.2691 20.3129 81.1939 20.2428 81.7208 19.6289C82.2478 19.0153 82.1775 18.0903 81.5638 17.5633C79.2152 15.5469 76.9228 13.8836 76.1802 11.2174C73.9562 3.23362 65.1619 -1.50388 56.1572 0.432448C53.1232 1.08499 50.5339 3.08596 49 5.69592C47.466 3.08596 44.8767 1.08499 41.8427 0.432448C32.8396 -1.5031 24.0437 3.23342 21.8195 11.2172C20.273 16.7678 11.8564 18.0407 9.79585 27.909C9.78999 27.9321 9.7851 27.9553 9.78022 27.9787C8.54506 34.0098 10.9957 35.0965 5.27592 45.1237C2.14428 50.6137 -1.094 56.2906 2.30405 68.2807C3.69878 73.2024 7.32983 77.3739 10.5757 81.3951C11.0839 82.025 12.006 82.1233 12.6353 81.6151C13.2648 81.1069 13.3632 80.1846 12.855 79.5551C12.1085 78.6297 11.4503 77.8287 10.6683 76.8498Z" fill="url(#paint0_radial)"/>
<path d="M95.6959 68.2805C99.094 56.2905 95.8557 50.6135 92.724 45.1235C87.0115 35.1092 89.4494 34.0044 88.2199 27.9799C88.2162 27.9618 88.2133 27.9434 88.2088 27.9256C87.7914 25.9104 87.0762 24.1065 86.0488 22.4798C85.617 21.7958 84.7123 21.5913 84.0283 22.0235C83.3444 22.4555 83.1403 23.3604 83.5723 24.0444C84.4078 25.3674 84.9938 26.8518 85.3406 28.5255C85.4363 29.445 86.0692 37.7317 78.3684 41.5346C77.643 41.8928 77.3453 42.7714 77.7035 43.4967C78.0617 44.2223 78.9401 44.5198 79.6653 44.1618C82.5932 42.7157 84.8463 40.5499 86.3233 37.8059C87.1424 41.2499 88.6783 43.9434 90.1797 46.5753C93.1422 51.7688 95.9404 56.6743 92.8777 67.4813C92.3904 69.2008 91.5758 70.8313 90.5641 72.4292C90.0651 72.904 86.3231 76.0391 78.4526 71.9489C77.7348 71.5756 76.8504 71.8555 76.4776 72.5733C76.1047 73.2913 76.3842 74.1756 77.102 74.5487C80.5615 76.3465 83.4289 76.9532 85.7254 76.9532C86.2961 76.9532 86.8313 76.9155 87.3319 76.8493C86.8924 77.3995 86.4449 77.9516 85.9924 78.5089C80.0326 85.8475 80.1885 86.7665 79.1369 88.3592C77.9588 88.4624 75.1711 88.5772 72.1959 87.7713C67.1281 86.3989 64.0031 83.0618 62.9076 77.8528C62.7412 77.0612 61.9655 76.5549 61.1729 76.7208C60.3813 76.8874 59.8746 77.6641 60.041 78.4559C61.7108 86.3956 67.1563 89.4418 71.4303 90.5993C73.1342 91.0608 74.7758 91.2608 76.1682 91.3303C71.3862 94.7288 63.5783 96.1835 57.5135 97.012C53.9985 97.4934 50.8014 94.9534 50.469 91.4317C50.5059 90.854 50.4821 90.9077 50.4897 87.4924C50.4897 86.6835 49.834 86.0274 49.025 86.0274C48.216 86.0274 47.5604 86.6833 47.5604 87.4924C47.5604 87.4924 47.5057 91.0331 47.5311 91.4317C47.1975 94.9667 43.9887 97.4907 40.4865 97.012C34.4217 96.1835 26.6139 94.7288 21.8319 91.3303C23.2244 91.2608 24.866 91.0606 26.5697 90.5993C30.844 89.4418 36.2893 86.3956 37.959 78.4559C38.1254 77.6641 37.6188 76.8874 36.8272 76.7208C36.0352 76.5547 35.2588 77.061 35.0924 77.8528C34.0033 83.0319 30.9067 86.3612 25.8885 87.7483C22.9018 88.5741 20.0571 88.4602 18.8621 88.3577C18.3049 87.5129 18.0799 86.7915 16.692 84.6864C16.2467 84.011 15.3383 83.8245 14.6629 84.27C13.9875 84.7153 13.8012 85.6241 14.2465 86.2995C15.8258 88.6948 15.7449 89.111 16.8614 90.5963C16.8688 90.6067 16.8766 90.6169 16.8842 90.627C21.4229 96.6268 31.5399 98.7471 40.0897 99.9151C40.5043 99.9717 40.9196 99.9997 41.3324 99.9997C44.4063 99.9997 47.2967 98.4583 48.9996 95.8499C50.7006 98.4551 53.5895 99.9997 56.6668 99.9997C57.0797 99.9997 57.4951 99.9717 57.9096 99.9151C66.4596 98.7471 76.5766 96.6268 81.1151 90.627C81.1229 90.6169 81.1305 90.6067 81.1379 90.5963C82.8797 88.2792 81.894 88.2016 88.2654 80.3561C91.217 76.7227 94.4164 72.796 95.6959 68.2805Z" fill="url(#paint1_radial)"/>
<path d="M26.3486 55.031C22.9984 58.0067 15.7718 57.019 11.6294 55.5878C10.8656 55.3233 10.0316 55.7276 9.76653 56.4915C9.5011 57.2558 9.90559 58.0905 10.6697 58.356C15.8929 60.1696 24.0054 61.0304 28.2937 57.2216C33.9157 52.2282 35.0331 44.8386 33.6782 41.4239C32.5083 38.4753 27.9859 33.6886 27.474 33.1524C26.9152 32.5673 25.9882 32.546 25.4031 33.1046C24.8181 33.6634 24.7966 34.5907 25.3552 35.1759C26.6365 36.5179 30.1404 40.4507 30.9552 42.5046C31.8437 44.7433 31.0638 50.8431 26.3486 55.031Z" fill="url(#paint2_radial)"/>
<path d="M72.6442 35.1758C73.2026 34.5904 73.1811 33.6633 72.5962 33.1047C72.0112 32.5459 71.0842 32.5674 70.5255 33.1525C70.0137 33.6887 65.4913 38.4752 64.3212 41.424C62.9663 44.8386 64.0837 52.2283 69.7057 57.2217C72.0126 59.2707 75.1923 59.8965 78.2184 59.8965C82.8069 59.8965 87.0405 58.4564 87.3297 58.356C88.094 58.0908 88.4983 57.256 88.2329 56.4916C87.9676 55.7273 87.1331 55.3232 86.3688 55.5883C83.551 56.5666 75.4143 58.3736 71.6508 55.031C66.9358 50.8431 66.1559 44.7431 67.044 42.5049C67.8579 40.4539 71.3626 36.5189 72.6442 35.1758Z" fill="url(#paint3_radial)"/>
<defs>
<radialGradient id="paint0_radial" cx="0" cy="0" r="1" gradientUnits="userSpaceOnUse" gradientTransform="translate(74.1505 -36.1767) rotate(101.961) scale(127.843 54.1989)">
<stop stop-color="#027FFF"/>
<stop offset="1" stop-color="#0C2F83"/>
</radialGradient>
<radialGradient id="paint1_radial" cx="0" cy="0" r="1" gradientUnits="userSpaceOnUse" gradientTransform="translate(89.0333 -12.4169) rotate(102.915) scale(121.351 55.2777)">
<stop stop-color="#027FFF"/>
<stop offset="1" stop-color="#0C2F83"/>
</radialGradient>
<radialGradient id="paint2_radial" cx="0" cy="0" r="1" gradientUnits="userSpaceOnUse" gradientTransform="translate(31.8075 20.7995) rotate(101.001) scale(41.9089 16.4145)">
<stop stop-color="#027FFF"/>
<stop offset="1" stop-color="#0C2F83"/>
</radialGradient>
<radialGradient id="paint3_radial" cx="0" cy="0" r="1" gradientUnits="userSpaceOnUse" gradientTransform="translate(85.9227 20.8004) rotate(101.001) scale(41.9059 16.4145)">
<stop stop-color="#027FFF"/>
<stop offset="1" stop-color="#0C2F83"/>
</radialGradient>
</defs>
</svg>
