<svg width="86" height="100" viewBox="0 0 86 100" fill="none" xmlns="http://www.w3.org/2000/svg">
<path d="M75.6056 33.1934C75.1318 33.1934 74.6615 33.2352 74.1966 33.3146V31.1965C74.1966 13.9947 60.2019 0 43.0001 0C34.0257 0 25.4794 3.87031 19.5527 10.6184C19.0189 11.2262 19.0788 12.1518 19.6867 12.6855C20.2945 13.2193 21.2202 13.1594 21.7538 12.5516C27.1245 6.43672 34.8685 2.92969 43.0001 2.92969C58.5865 2.92969 71.2669 15.6102 71.2669 31.1965V46.2238C71.2669 49.7799 70.8193 53.3082 69.9474 56.7264C69.9433 56.7432 69.9384 56.7596 69.9349 56.7764C68.9384 60.6627 67.3929 64.4062 65.3314 67.8857C64.9189 68.5816 65.1488 69.4803 65.8449 69.8928C66.5408 70.3049 67.4394 70.0754 67.8517 69.3793C69.7423 66.1885 71.2257 62.7893 72.282 59.2645C73.3466 59.7164 74.4706 59.9514 75.6056 59.9514C81.4913 59.9514 82.339 55.1828 82.7945 52.6211C83.0611 51.1213 83.0712 51.0252 83.8689 49.8C84.674 48.5637 85.6759 47.025 85.6759 43.9025C85.6759 37.2967 81.8171 33.1934 75.6056 33.1934ZM81.4138 48.2012C80.3632 49.8148 80.2378 50.2635 79.9099 52.1082C79.3822 55.0762 78.7976 57.0215 75.6054 57.0215C74.7185 57.0215 73.8597 56.8092 73.0415 56.3904C73.8044 53.0689 74.1964 49.6586 74.1964 46.2238V44.2455C74.372 43.9744 74.6999 43.5312 75.1724 43.1521C76.1062 42.4023 77.1546 42.2666 78.3779 42.7367C79.1328 43.027 79.9804 42.6504 80.2706 41.8949C80.5609 41.1398 80.1841 40.2924 79.4289 40.0021C77.3093 39.1873 75.5462 39.5162 74.1962 40.2773V36.3098C74.6591 36.1861 75.1304 36.123 75.6052 36.123C82.0501 36.123 82.7458 41.5633 82.7458 43.9023C82.7462 46.1551 82.1288 47.1031 81.4138 48.2012Z" fill="url(#paint0_radial)"/>
<path d="M63.9861 72.6449C63.3139 72.1951 62.4041 72.3756 61.9541 73.0481C59.6406 76.4651 59.4664 76.8686 58.6865 77.778C58.6754 77.791 58.6643 77.8039 58.6535 77.8174C56.3934 80.4305 53.1041 81.9537 49.5969 81.9537H37.4563C33.6354 81.9537 30.0125 80.1086 27.7654 77.018L22.8574 70.2678C19.8434 66.1223 17.6361 61.5486 16.2891 56.7174C16.2729 56.6059 16.2424 56.4959 16.2 56.3889C15.2309 52.8014 14.7332 49.075 14.7332 45.2779V31.1959C14.7332 26.359 15.9754 21.5865 18.3256 17.3942C18.7211 16.6885 18.4699 15.7957 17.7641 15.4002C17.0582 15.0047 16.1656 15.2559 15.7701 15.9617C13.1752 20.5906 11.8035 25.8584 11.8035 31.1961V33.3143C11.3387 33.2348 10.8684 33.193 10.3945 33.193C4.18301 33.193 0.324219 37.2963 0.324219 43.902C0.324219 47.0246 1.32617 48.5631 2.13125 49.7994C2.92793 51.0231 2.93906 51.1195 3.20566 52.6205C3.66113 55.1822 4.50879 59.9508 10.3945 59.9508C11.6184 59.9508 12.8252 59.6781 13.9611 59.1551C15.4225 63.7119 17.6111 68.034 20.4881 71.9908L24.7383 77.8363V98.5348C24.7383 99.3438 25.3941 99.9996 26.2031 99.9996H30.5451C31.3541 99.9996 32.01 99.3438 32.01 98.5348C32.01 97.7258 31.3541 97.0699 30.5451 97.0699H27.668V81.2153C30.3561 83.55 33.8342 84.8834 37.4564 84.8834H49.5971C52.785 84.8834 55.827 83.8709 58.3322 82.0588V97.0699H36.765C35.9561 97.0699 35.3002 97.7258 35.3002 98.5348C35.3002 99.3438 35.9561 99.9996 36.765 99.9996H59.7969C60.6059 99.9996 61.2617 99.3438 61.2617 98.5348V79.2588C61.9311 78.417 62.0897 78.0881 64.3893 74.677C64.8391 74.0045 64.6586 73.0947 63.9861 72.6449ZM10.3945 57.0211C7.20254 57.0211 6.61777 55.0758 6.09004 52.1078C5.76133 50.2592 5.63613 49.8135 4.58613 48.2008C3.87109 47.1029 3.25371 46.1547 3.25371 43.902C3.25371 41.5629 3.94961 36.1227 10.3943 36.1227C10.8691 36.1227 11.3404 36.1858 11.8033 36.3094V40.277C10.4535 39.516 8.69043 39.1871 6.5707 40.0018C5.81563 40.292 5.43867 41.1395 5.72891 41.8945C6.01914 42.6496 6.8668 43.0268 7.62168 42.7363C9.37695 42.0615 10.8035 42.7026 11.8031 44.2463V45.2781C11.8031 49.0321 12.2586 52.7213 13.1463 56.2883C12.2727 56.7742 11.3506 57.0211 10.3945 57.0211Z" fill="url(#paint1_radial)"/>
<path d="M51.0904 54.16C50.4029 53.7332 49.4999 53.9446 49.0732 54.6319C49.0566 54.6586 47.2935 57.3051 42.9999 57.3051C38.7374 57.3051 37.0074 54.7545 36.9199 54.6209C36.4906 53.9422 35.5933 53.7358 34.9097 54.16C34.2224 54.5868 34.0111 55.4899 34.4378 56.1772C34.5408 56.3428 37.0257 60.2348 43.0001 60.2348C48.9746 60.2348 51.4595 56.3428 51.5624 56.1772C51.9888 55.4901 51.7777 54.5868 51.0904 54.16Z" fill="url(#paint2_radial)"/>
<path d="M29.9922 30.9488C25.0739 30.524 20.9829 32.0213 20.8112 32.0853C20.053 32.3676 19.6672 33.2109 19.9493 33.9691C20.2315 34.7273 21.0747 35.1129 21.8331 34.831C21.869 34.8178 25.4708 33.5002 29.7407 33.8678C33.5569 34.1969 35.509 37.1803 35.5979 37.3191C36.0274 38.0017 36.9278 38.2086 37.6122 37.7822C38.2989 37.3545 38.5086 36.451 38.0809 35.7642C37.9704 35.5865 35.3086 31.407 29.9922 30.9488Z" fill="url(#paint3_radial)"/>
<path d="M66.0505 33.9669C66.3327 33.2087 65.9468 32.3654 65.1886 32.0832C65.0169 32.0193 60.9261 30.5226 56.0076 30.9466C50.6911 31.4048 48.0296 35.5845 47.9189 35.7621C47.4927 36.446 47.7013 37.3425 48.3831 37.7724C49.0638 38.2013 49.9671 37.9984 50.4013 37.3177C50.4826 37.1904 52.4351 34.1951 56.2591 33.8654C60.4984 33.5003 64.1327 34.8162 64.1667 34.8287C64.9249 35.1111 65.7683 34.7249 66.0505 33.9669Z" fill="url(#paint4_radial)"/>
<path d="M34.4181 64.5222C33.6825 64.1936 32.8186 64.521 32.486 65.2559C32.1526 65.9931 32.4798 66.8608 33.2169 67.1944C33.352 67.2556 36.6005 68.6919 43.0003 68.6919C49.4001 68.6919 52.6485 67.2556 52.7837 67.1944C53.5179 66.8622 53.8423 66.0011 53.5141 65.2649C53.186 64.5288 52.3214 64.1979 51.5835 64.5218C51.5552 64.5341 48.6942 65.762 43.0003 65.762C37.3436 65.762 34.4829 64.5503 34.4181 64.5222Z" fill="url(#paint5_radial)"/>
<defs>
<radialGradient id="paint0_radial" cx="0" cy="0" r="1" gradientUnits="userSpaceOnUse" gradientTransform="translate(79.1893 -30.6677) rotate(101.562) scale(108.218 44.4328)">
<stop stop-color="#027FFF"/>
<stop offset="1" stop-color="#0C2F83"/>
</radialGradient>
<radialGradient id="paint1_radial" cx="0" cy="0" r="1" gradientUnits="userSpaceOnUse" gradientTransform="translate(58.3623 -21.8813) rotate(99.2913) scale(129.945 43.2939)">
<stop stop-color="#027FFF"/>
<stop offset="1" stop-color="#0C2F83"/>
</radialGradient>
<radialGradient id="paint2_radial" cx="0" cy="0" r="1" gradientUnits="userSpaceOnUse" gradientTransform="translate(50.0691 51.1852) rotate(121.04) scale(11.113 10.2662)">
<stop stop-color="#027FFF"/>
<stop offset="1" stop-color="#0C2F83"/>
</radialGradient>
<radialGradient id="paint3_radial" cx="0" cy="0" r="1" gradientUnits="userSpaceOnUse" gradientTransform="translate(36.5031 27.7533) rotate(119.158) scale(12.3505 10.9879)">
<stop stop-color="#027FFF"/>
<stop offset="1" stop-color="#0C2F83"/>
</radialGradient>
<radialGradient id="paint4_radial" cx="0" cy="0" r="1" gradientUnits="userSpaceOnUse" gradientTransform="translate(64.3434 27.7534) rotate(119.173) scale(12.3441 10.986)">
<stop stop-color="#027FFF"/>
<stop offset="1" stop-color="#0C2F83"/>
</radialGradient>
<radialGradient id="paint5_radial" cx="0" cy="0" r="1" gradientUnits="userSpaceOnUse" gradientTransform="translate(51.5653 62.5144) rotate(136.893) scale(9.51142 9.92254)">
<stop stop-color="#027FFF"/>
<stop offset="1" stop-color="#0C2F83"/>
</radialGradient>
</defs>
</svg>
