<svg width="94" height="100" viewBox="0 0 94 100" fill="none" xmlns="http://www.w3.org/2000/svg">
<path d="M24.9745 57.6359C25.7712 59.7609 26.9265 66.7779 26.8763 69.1873C26.8167 72.091 26.0437 76.7908 25.2962 81.3358C25.165 82.134 25.7056 82.8875 26.5038 83.0188C27.3009 83.1512 28.056 82.6094 28.187 81.8109C28.9865 76.9508 29.7415 72.36 29.8054 69.2479C29.8642 66.4301 28.6544 59.1057 27.7179 56.6078C25.7126 51.2555 22.531 44.1986 22.531 37.1635C22.531 35.6457 20.4915 35.1336 19.7747 36.4721C17.0679 41.527 16.0554 49.0817 15.2419 55.152C14.4242 61.2541 14.1622 60.3067 14.8191 66.5535C14.9968 68.2432 15.1804 69.9906 15.1245 71.0426C14.6527 79.9775 12.2243 93.1055 11.4607 97.0707H4.24251C3.94036 92.6094 3.047 78.0914 3.44954 67.8379C3.86809 57.2358 6.32317 51.2733 6.40735 48.9736C6.56692 44.694 6.95774 40.5248 7.30286 36.8465C7.64876 33.1586 7.922 30.2459 7.84622 28.4184C7.66751 24.0379 7.7261 19.1319 10.7013 16.3539C13.4939 13.7446 19.7566 12.6656 24.2241 12.0813C25.0265 11.9764 25.5917 11.241 25.4867 10.4389C25.3818 9.63674 24.6464 9.07249 23.8443 9.17639C18.5644 9.86702 12.0716 11.0637 8.70149 14.2129C4.82024 17.8371 4.71399 23.5072 4.91907 28.5387C4.98665 30.1695 4.70833 33.1369 4.38606 36.5731C4.03763 40.2897 3.64251 44.5026 3.47981 48.8654C3.41966 50.5143 0.94329 57.0615 0.522196 67.7229C0.0370397 80.0779 1.40227 98.4613 1.41614 98.6455C1.47356 99.4098 2.11048 100.001 2.87688 100.001H12.6665C13.3638 100.001 13.9646 99.509 14.1025 98.8254C14.2402 98.1432 17.4798 81.9932 18.0501 71.1975C18.1183 69.9147 17.931 68.1334 17.7325 66.2473C17.1275 60.4895 17.3304 61.6227 18.1454 55.5414C18.655 51.7385 19.2458 47.3299 20.2753 43.4504C21.3552 48.7658 23.5007 53.7024 24.9745 57.6359Z" fill="url(#paint0_radial)"/>
<path d="M93.4776 67.7214C93.0501 56.8925 90.5833 50.5925 90.52 48.8636C90.397 45.5605 90.1327 42.3263 89.9446 40.1808C89.8741 39.3749 89.163 38.7794 88.3575 38.8495C87.5515 38.9202 86.9556 39.6308 87.0261 40.4368C87.2114 42.5507 87.4718 45.7357 87.5923 48.972C87.6767 51.2704 90.1319 57.2401 90.5503 67.8366C90.9528 78.0878 90.0595 92.6077 89.7573 97.0698H82.5392C81.7753 93.1044 79.3474 79.9792 78.8751 71.0415C78.8192 69.9896 79.003 68.2423 79.1806 66.5527C79.8376 60.3038 79.5771 61.2648 78.7577 55.1511C77.944 49.0808 76.9317 41.5261 74.2249 36.4712C73.5091 35.1339 71.4687 35.6431 71.4687 37.1626C71.4687 44.1337 68.3569 51.0667 66.2819 56.6066C65.3452 59.1048 64.1355 66.4292 64.1942 69.2466C64.2583 72.3626 65.0106 76.9359 65.8819 82.231C66.6417 86.8493 67.4933 92.0245 68.0169 97.0698H48.4648V52.081C48.4648 51.2718 47.8089 50.6161 46.9999 50.6161C46.1909 50.6161 45.5351 51.2718 45.5351 52.081V97.0698H25.9827C26.2558 94.4378 26.6454 91.5091 27.1882 87.9999C27.3118 87.2003 26.764 86.4519 25.9644 86.3282C25.1659 86.2054 24.4165 86.7525 24.2929 87.5521C23.6284 91.8495 23.189 95.2978 22.9103 98.404C22.8335 99.2593 23.5075 99.9997 24.3692 99.9997H69.631C70.4933 99.9997 71.1667 99.2589 71.0899 98.404C70.5831 92.7566 69.6216 86.912 68.7731 81.7558C67.9202 76.5712 67.1835 72.0935 67.1237 69.1862C67.0735 66.7771 68.2286 59.7603 69.0257 57.6349C70.5079 53.6776 72.6452 48.763 73.7243 43.4497C74.7538 47.329 75.3446 51.7378 75.8542 55.5405C76.6692 61.622 76.8724 60.4888 76.2671 66.2464C76.0687 68.1323 75.8815 69.9136 75.9493 71.1964C76.5198 81.9923 79.7595 98.1423 79.8972 98.8245C80.0353 99.5081 80.6358 99.9997 81.3331 99.9997H91.1228C91.8892 99.9997 92.5261 99.4091 92.5835 98.6446C92.5976 98.4603 93.9628 80.0769 93.4776 67.7214Z" fill="url(#paint1_radial)"/>
<path d="M30.4656 11.3455C32.624 11.076 33.7554 10.8445 34.5007 10.5201C37.6033 9.17188 40.3263 6.30195 40.7093 2.92969H53.2876C53.6798 6.44844 56.6011 9.26094 59.4982 10.5197C60.6796 11.034 62.8974 11.2832 65.9667 11.6283C71.5232 12.2529 79.9203 13.1969 83.299 16.3537C86.2736 19.1314 86.3322 24.0375 86.1537 28.417C86.0937 29.8643 86.2617 32.0465 86.4519 34.1891C86.5197 34.9506 87.1589 35.5244 87.9093 35.5242C87.9527 35.5242 87.9966 35.5223 88.0406 35.5186C88.8464 35.4471 89.4417 34.7355 89.3701 33.9297C89.1884 31.8857 89.0277 29.818 89.0808 28.5375C89.2859 23.507 89.1798 17.8369 85.2988 14.2129C81.2117 10.3939 72.5894 9.42461 66.2939 8.71699C63.8001 8.43652 61.4447 8.17188 60.6665 7.8332C58.2164 6.76855 55.896 4.29668 56.2017 1.63184C56.2494 1.21699 56.1175 0.801562 55.8396 0.489844C55.5615 0.178125 55.1636 0 54.7462 0H39.2535C38.8359 0 38.4382 0.178125 38.1603 0.489844C37.8824 0.801562 37.7505 1.21699 37.7982 1.63184C38.1039 4.29668 35.7833 6.76856 33.3326 7.83359C32.6831 8.11621 30.7412 8.35859 30.1029 8.43848C29.3001 8.53887 28.7304 9.2709 28.8308 10.0736C28.9312 10.8764 29.6615 11.4453 30.4656 11.3455Z" fill="url(#paint2_radial)"/>
<path d="M39.6947 23.5646C39.6716 23.6604 37.3208 33.2392 30.4327 39.9829C29.8546 40.5489 29.8449 41.4763 30.4109 42.0544C30.9767 42.6323 31.9042 42.6423 32.4824 42.0763C39.9915 34.7243 42.4441 24.6665 42.5449 24.2419C42.7316 23.4552 42.2452 22.6667 41.4587 22.4794C40.6716 22.2927 39.8827 22.7784 39.6947 23.5646Z" fill="url(#paint3_radial)"/>
<path d="M55.7555 23.5671C55.5682 22.7807 54.7789 22.2954 53.9922 22.4809C53.2051 22.6678 52.7184 23.4573 52.9051 24.2444C53.0059 24.669 55.4584 34.7268 62.9674 42.0788C63.5454 42.6446 64.4729 42.635 65.0389 42.0569C65.6049 41.4788 65.5952 40.5514 65.017 39.9854C58.1319 33.2442 55.7803 23.6702 55.7555 23.5671Z" fill="url(#paint4_radial)"/>
<defs>
<radialGradient id="paint0_radial" cx="0" cy="0" r="1" gradientUnits="userSpaceOnUse" gradientTransform="translate(26.9402 -30.5769) rotate(93.9918) scale(137.724 19.9988)">
<stop stop-color="#027FFF"/>
<stop offset="1" stop-color="#0C2F83"/>
</radialGradient>
<radialGradient id="paint1_radial" cx="0" cy="0" r="1" gradientUnits="userSpaceOnUse" gradientTransform="translate(86.6865 7.56774) rotate(103.337) scale(99.9502 46.9109)">
<stop stop-color="#027FFF"/>
<stop offset="1" stop-color="#0C2F83"/>
</radialGradient>
<radialGradient id="paint2_radial" cx="0" cy="0" r="1" gradientUnits="userSpaceOnUse" gradientTransform="translate(83.468 -15.5419) rotate(110.187) scale(57.2469 38.77)">
<stop stop-color="#027FFF"/>
<stop offset="1" stop-color="#0C2F83"/>
</radialGradient>
<radialGradient id="paint3_radial" cx="0" cy="0" r="1" gradientUnits="userSpaceOnUse" gradientTransform="translate(41.3563 13.6654) rotate(97.7122) scale(30.61 8.51173)">
<stop stop-color="#027FFF"/>
<stop offset="1" stop-color="#0C2F83"/>
</radialGradient>
<radialGradient id="paint4_radial" cx="0" cy="0" r="1" gradientUnits="userSpaceOnUse" gradientTransform="translate(64.2286 13.6671) rotate(97.7119) scale(30.6108 8.51159)">
<stop stop-color="#027FFF"/>
<stop offset="1" stop-color="#0C2F83"/>
</radialGradient>
</defs>
</svg>
