<svg width="100" height="74" viewBox="0 0 100 74" fill="none" xmlns="http://www.w3.org/2000/svg">
<path d="M98.5352 32.2098C99.3442 32.2098 100 31.5539 100 30.7449V25.9824C100 25.4154 99.7026 24.8762 99.1897 24.6344C98.6829 24.3953 98.1133 24.4438 97.6778 24.7934C97.4499 24.9314 94.745 26.4549 86.7266 26.4549C72.2784 26.4549 71.9202 12.1258 63.7598 13.0822C57.1544 5.65371 47.5311 0.964844 36.8317 0.964844C30.77 0.964844 24.7753 2.49902 19.4958 5.40156C18.7868 5.79141 18.528 6.68203 18.9179 7.39102C19.3077 8.1 20.1985 8.35859 20.9073 7.96895C25.7555 5.30352 31.2622 3.89473 36.8317 3.89473C51.0622 3.89473 63.2233 12.9203 67.894 25.5475C65.4352 23.9359 63.9536 23.7186 63.1926 22.8949C62.5755 22.2268 61.5924 19.7135 59.8946 17.9082C57.5706 15.4367 54.3473 14.4781 51.3153 13.6133C50.8235 13.473 50.3317 13.3328 49.8426 13.1846C49.0147 12.9338 48.9493 12.8779 48.3811 12.3172C47.9417 11.8836 47.395 11.3441 46.594 11.0598C45.8323 10.7895 44.9942 11.1877 44.7235 11.9502C44.4528 12.7127 44.8514 13.55 45.6139 13.8207C45.801 13.8871 46.0548 14.1375 46.3235 14.4025C47.5585 15.6209 47.9667 15.7049 50.512 16.4307C51.6954 16.7684 52.8132 17.0871 53.8967 17.5068C55.5893 18.1625 56.8532 18.9504 57.7606 19.9152C59.2208 21.468 60.0133 23.7713 61.0411 24.8832C62.8467 26.8377 66.5774 27.0014 69.3573 30.8248C69.4434 31.2791 69.5204 31.7363 69.5878 32.1969C67.1782 31.0551 63.569 29.4141 61.7508 28.9291C60.9434 28.7137 60.0815 27.873 59.169 26.983C57.7503 25.5992 55.9846 23.8771 53.4255 23.6639C50.0229 23.3803 44.593 21.7104 44.5387 21.6936C43.7661 21.4553 42.9456 21.8873 42.7065 22.6602C42.4675 23.433 42.9001 24.2533 43.6729 24.4924C43.9075 24.565 49.4602 26.2732 53.1823 26.5836C54.6926 26.7096 55.8735 27.8611 57.1235 29.0805C58.2659 30.1949 59.4473 31.3471 60.9962 31.76C62.8684 32.2592 67.5153 34.4355 69.9057 35.599C69.9102 35.7068 69.9145 35.8145 69.918 35.9225C68.4872 36.1725 66.1139 36.6912 64.426 37.593C62.1419 38.8135 59.2335 40.2186 57.0012 40.2523C54.0016 40.2979 52.2815 41.7494 49.5618 42.6025C47.7303 43.1772 46.0676 43.2033 45.2686 43.216C44.7108 43.2248 43.9466 43.2367 43.5292 44.0314C43.28 44.5059 43.3108 45.0875 43.6079 45.5336C44.1876 46.4037 45.1544 46.1477 45.3147 46.1453C46.1786 46.1316 48.2014 46.0998 50.4387 45.398C53.318 44.4945 54.8102 43.2156 57.0456 43.1816C59.8905 43.1387 63.0708 41.6387 65.8065 40.177C66.9647 39.558 68.6465 39.1475 69.8821 38.9082C69.8604 39.2941 69.8317 39.6785 69.7971 40.0617C69.0419 41.3428 68.5837 42.0838 67.538 42.9883C66.4272 43.949 64.9383 44.5588 63.459 45.3598C60.7659 46.818 59.0798 48.302 57.8483 49.3856C56.0721 50.9484 55.6526 51.3229 52.1009 52.1793C51.2093 52.3943 50.2872 52.6168 49.3801 52.933C48.0321 53.4029 47.5669 54.1918 47.2272 54.7678C46.9733 55.1982 46.7899 55.5092 46.0089 55.9104C45.2891 56.2799 45.0053 57.1629 45.3749 57.8826C45.7448 58.6029 46.6282 58.8857 47.3471 58.5166C48.8827 57.7279 49.4051 56.8422 49.7509 56.2561C49.9858 55.8576 50.0104 55.816 50.3448 55.6994C51.1151 55.4309 51.9276 55.235 52.7878 55.0273C56.8391 54.0502 57.6639 53.4504 59.7839 51.5848C64.5407 47.3986 66.0653 47.7024 68.7819 45.732C67.2118 51.5258 64.1042 56.6951 59.7985 60.8434C59.2159 61.4047 59.1987 62.332 59.76 62.9145C60.3212 63.4971 61.2485 63.5143 61.8311 62.9529C62.513 62.2959 63.1649 61.617 63.7876 60.9182C71.9719 61.8348 72.2546 47.5469 86.7266 47.5469C94.745 47.5469 97.4499 49.0703 97.6778 49.2084C98.1133 49.558 98.6831 49.6068 99.1897 49.3674C99.7024 49.1256 100 48.5863 100 48.0193V37C100 36.191 99.3442 35.5352 98.5352 35.5352C97.7262 35.5352 97.0704 36.191 97.0704 37V45.8148C95.1688 45.2295 91.9352 44.6172 86.7266 44.6172C73.968 44.6172 70.5417 54.142 66.7874 57.0527C70.7428 51.1775 72.8669 44.2688 72.8669 37C72.8669 29.8236 70.7419 22.8537 66.7274 16.9014C70.5247 19.7791 73.8807 29.3846 86.7266 29.3846C91.935 29.3846 95.1688 28.7723 97.0704 28.1869V30.7447C97.0704 31.5539 97.7262 32.2098 98.5352 32.2098Z" fill="url(#paint0_radial)"/>
<path d="M55.1121 64.6056C49.6879 68.2037 43.3668 70.1056 36.832 70.1056C24.9721 70.1056 14.2189 63.7986 8.34551 53.8857C9.01406 54.1005 9.70703 54.2146 10.4191 54.2146C16.2617 54.2146 20.8383 46.6531 20.8383 36.9999C20.8383 27.3468 16.2617 19.7853 10.4191 19.7853C9.70898 19.7853 9.01797 19.899 8.35117 20.1126C10.3316 16.7773 12.8957 13.7962 15.9482 11.3119C16.5756 10.8011 16.6703 9.87846 16.1598 9.25111C15.6492 8.62377 14.7266 8.52904 14.099 9.03959C8.88437 13.2839 4.97773 18.8607 2.78691 25.1751C1.05137 28.238 0 32.3777 0 37.0001C0 41.6177 1.04902 45.7537 2.78105 48.8154C7.80781 63.3097 21.467 73.0353 36.832 73.0353C43.9447 73.0353 50.8258 70.9646 56.7316 67.047C57.4059 66.5997 57.5898 65.6908 57.1426 65.0165C56.6951 64.3423 55.7861 64.1583 55.1121 64.6056ZM17.9084 37.0001C17.9084 44.7435 14.4787 51.2851 10.4189 51.2851C8.53008 51.2851 6.77793 49.8677 5.44394 47.5732C5.40664 47.4888 5.36191 47.4101 5.31113 47.3363C4.25879 45.4396 3.48535 42.9857 3.13672 40.2533C3.94805 43.499 5.9498 45.7431 8.35059 45.7431C11.4922 45.7431 13.9533 41.9029 13.9533 37.0003C13.9533 32.0978 11.4924 28.2576 8.35059 28.2576C5.9498 28.2576 3.94785 30.5017 3.13672 33.7474C3.4877 30.9968 4.26895 28.5283 5.33184 26.6267C5.36816 26.5708 5.40078 26.5126 5.42969 26.4511C6.76562 24.1423 8.52344 22.7156 10.4189 22.7156C14.4787 22.7152 17.9084 29.2568 17.9084 37.0001ZM5.67793 37.0001C5.67793 35.3304 6.04981 33.7185 6.69844 32.5777C7.19355 31.707 7.81113 31.1869 8.35078 31.1869C8.89043 31.1869 9.5082 31.7068 10.0031 32.5777C10.6518 33.7183 11.0236 35.3302 11.0236 36.9999C11.0236 38.6697 10.6518 40.2816 10.0031 41.4222C9.50801 42.2931 8.89023 42.813 8.35078 42.813C7.81133 42.813 7.19355 42.2931 6.69844 41.4222C6.04981 40.2818 5.67793 38.6699 5.67793 37.0001Z" fill="url(#paint1_radial)"/>
<defs>
<radialGradient id="paint0_radial" cx="0" cy="0" r="1" gradientUnits="userSpaceOnUse" gradientTransform="translate(92.0719 -26.3343) rotate(105.69) scale(98.0296 53.367)">
<stop stop-color="#027FFF"/>
<stop offset="1" stop-color="#0C2F83"/>
</radialGradient>
<radialGradient id="paint1_radial" cx="0" cy="0" r="1" gradientUnits="userSpaceOnUse" gradientTransform="translate(51.7882 -19.431) rotate(100.892) scale(99.0753 38.4401)">
<stop stop-color="#027FFF"/>
<stop offset="1" stop-color="#0C2F83"/>
</radialGradient>
</defs>
</svg>
