<svg width="100" height="100" viewBox="0 0 100 100" fill="none" xmlns="http://www.w3.org/2000/svg">
<path d="M43.6876 73.8035C42.08 72.8418 40.2786 72.6072 38.6896 72.4002L17.581 69.6513C16.7779 69.5457 16.0437 70.1127 15.9392 70.9148C15.8347 71.717 16.4003 72.4521 17.2025 72.5566L38.3111 75.3054C39.6812 75.4838 41.098 75.6681 42.1833 76.3175C43.7536 77.2572 44.6572 79.1439 45.5943 81.3308C45.9134 82.0756 46.7757 82.4185 47.5177 82.1002C48.2615 81.7814 48.6058 80.9203 48.287 80.1767C47.4064 78.1216 46.2001 75.307 43.6876 73.8035Z" fill="url(#paint0_radial)"/>
<path d="M18.0545 65.2525C24.6877 63.1266 29.5184 59.3359 31.6566 54.5791C33.5123 50.4488 33.3309 45.8641 33.1707 41.8189L32.8687 34.218C35.6857 37.6928 39.9609 39.7463 44.457 39.7463H56.5977C60.5719 39.7463 64.3199 38.1734 67.082 35.4371L66.8293 41.8191C66.7125 44.7672 66.5803 48.1082 67.2828 51.3197C67.4545 52.1043 68.2291 52.6107 69.027 52.4377C69.8172 52.2646 70.3178 51.4838 70.1449 50.6934C69.5225 47.849 69.6471 44.7072 69.7568 41.9348L70.176 31.3537L73.5283 26.342C76.8016 21.4486 79.0525 16.0721 80.2398 10.3391C81.0094 10.5654 81.7996 10.6838 82.6057 10.6838C89.6824 10.6838 89.4705 3.83457 90.1004 1.92344C90.4121 0.977148 89.7066 0 88.709 0H11.291C10.2947 0 9.5875 0.975977 9.89981 1.92344C10.5045 3.75762 10.3053 10.6836 17.3945 10.6836C18.2678 10.6836 19.1219 10.5455 19.951 10.2807C20.667 13.4066 21.7123 16.4539 23.0707 19.3619C23.4131 20.0951 24.2848 20.4119 25.018 20.0691C25.751 19.7268 26.0676 18.8551 25.7252 18.1221C24.2117 14.882 23.1117 11.4576 22.4555 7.94258C22.1463 6.29395 21.9346 4.61348 21.8238 2.92949H78.2254C78.1506 4.64902 77.9713 6.36758 77.6898 8.05664C76.6934 14.0545 74.474 19.6584 71.0932 24.7127C67.9367 28.3553 65.6572 36.8162 56.5979 36.8162H44.4572C37.5971 36.8162 34.3115 32.0123 28.6961 23.4477C28.2521 22.7711 27.3443 22.582 26.6678 23.0262C25.9912 23.4697 25.8025 24.3779 26.2461 25.0545C27.1854 26.4863 27.7543 27.1988 29.7689 29.99L30.2436 41.935C30.3908 45.6572 30.5578 49.8762 28.9846 53.3779C27.9461 55.6883 25.0291 59.9408 17.1602 62.4627C12.0604 64.099 6.37656 64.6721 1.05059 66.2436C0.427539 66.4271 0 66.9992 0 67.6484V98.5352C0 99.3443 0.655859 100 1.46484 100H6.47891C7.28789 100 7.94375 99.3443 7.94375 98.5352C7.94375 97.726 7.28789 97.0703 6.47891 97.0703H2.92969V68.758C7.8873 67.426 13.0283 66.8648 18.0545 65.2525ZM19.3844 7.37578C18.7391 7.625 18.0732 7.75391 17.3945 7.75391C14.2336 7.75391 13.6295 5.84746 13.1062 2.92969H18.89C18.9818 4.41953 19.1471 5.90703 19.3844 7.37578ZM86.8938 2.92969C86.3705 5.84746 85.7664 7.75391 82.6055 7.75391C81.9734 7.75391 81.3523 7.64219 80.749 7.42539C80.9586 5.93809 81.0945 4.43418 81.1557 2.92949H86.8938V2.92969Z" fill="url(#paint1_radial)"/>
<path d="M98.9498 66.2437C93.5842 64.6605 87.9787 64.1116 82.8398 62.4626C79.6068 61.4265 75.174 59.4192 72.4158 55.7403C71.9307 55.0933 71.0125 54.962 70.365 55.447C69.7178 55.9323 69.5865 56.8505 70.0719 57.4978C73.2932 61.7942 78.307 64.0862 81.9453 65.2525C86.9561 66.8599 92.1387 67.4331 97.0705 68.7581V97.0704H12.4746C11.6656 97.0704 11.0098 97.7261 11.0098 98.5353C11.0098 99.3445 11.6656 100 12.4746 100H98.5352C99.3441 100 100 99.3445 100 98.5353V67.6485C100 66.9993 99.5725 66.4273 98.9498 66.2437Z" fill="url(#paint2_radial)"/>
<path d="M56.2353 73.8052C53.723 75.3085 52.5166 78.1231 51.6359 80.1784C51.3172 80.922 51.6617 81.7831 52.4053 82.1018C53.1486 82.4206 54.01 82.0761 54.3287 81.3325C55.266 79.1456 56.1697 77.2589 57.7394 76.3194C58.825 75.67 60.2418 75.4854 61.6121 75.3071L82.7205 72.5583C83.5229 72.4538 84.0885 71.7186 83.984 70.9165C83.8797 70.1145 83.1457 69.5487 82.3424 69.653L61.2338 72.4018C59.6445 72.6087 57.8434 72.8432 56.2353 73.8052Z" fill="url(#paint3_radial)"/>
<defs>
<radialGradient id="paint0_radial" cx="0" cy="0" r="1" gradientUnits="userSpaceOnUse" gradientTransform="translate(45.2372 64.1348) rotate(119.111) scale(21.7788 19.3564)">
<stop stop-color="#027FFF"/>
<stop offset="1" stop-color="#0C2F83"/>
</radialGradient>
<radialGradient id="paint1_radial" cx="0" cy="0" r="1" gradientUnits="userSpaceOnUse" gradientTransform="translate(81.3773 -43.75) rotate(101.006) scale(154.084 60.3795)">
<stop stop-color="#027FFF"/>
<stop offset="1" stop-color="#0C2F83"/>
</radialGradient>
<radialGradient id="paint2_radial" cx="0" cy="0" r="1" gradientUnits="userSpaceOnUse" gradientTransform="translate(91.318 35.5342) rotate(113.171) scale(73.7806 55.8064)">
<stop stop-color="#027FFF"/>
<stop offset="1" stop-color="#0C2F83"/>
</radialGradient>
<radialGradient id="paint3_radial" cx="0" cy="0" r="1" gradientUnits="userSpaceOnUse" gradientTransform="translate(80.8277 64.1368) rotate(119.111) scale(21.7785 19.3564)">
<stop stop-color="#027FFF"/>
<stop offset="1" stop-color="#0C2F83"/>
</radialGradient>
</defs>
</svg>
