<svg width="62" height="100" viewBox="0 0 62 100" fill="none" xmlns="http://www.w3.org/2000/svg">
<path d="M2.15981 76.4373C2.18833 76.4373 2.21763 76.4366 2.24653 76.4348C3.05415 76.3875 3.67056 75.6948 3.62349 74.8872C2.62466 57.7846 3.07173 33.6493 3.07622 33.4159C3.07778 33.3504 3.27603 26.7827 6.4311 19.7746C10.6131 10.4856 17.7579 4.95844 27.6669 3.34691C36.3989 1.9268 43.5571 4.19242 48.9442 10.0813C49.4905 10.6782 50.417 10.7194 51.0139 10.1735C51.6108 9.62738 51.6522 8.70082 51.1061 8.10394C45.0098 1.43988 36.9649 -1.13336 27.1965 0.455312C13.5692 2.67172 6.92954 11.5305 3.75962 18.5719C0.364503 26.1131 0.154346 33.0512 0.146924 33.3512C0.142432 33.5942 -0.306981 57.8409 0.698488 75.0579C0.743995 75.8366 1.3897 76.4373 2.15981 76.4373Z" fill="url(#paint0_radial)"/>
<path d="M54.9807 13.3687C54.5672 12.6734 53.668 12.4449 52.9728 12.8583C52.2773 13.2718 52.0488 14.1706 52.4625 14.866C56.6344 21.8806 59.0271 31.807 59.0271 42.0996C59.0271 53.465 51.1932 63.0027 43.617 72.2263C39.4316 77.3218 35.1039 82.5908 32.2793 88.0285C28.1334 96.0093 21.6359 97.1201 18.1383 97.0679C12.7885 96.9919 7.59921 94.2376 5.79921 90.5183C5.33027 89.5492 4.65117 87.1177 4.08007 81.0376C4.00449 80.2322 3.29081 79.6406 2.48476 79.7162C1.67929 79.7917 1.08749 80.506 1.16328 81.3115C1.66132 86.616 2.31523 90.0449 3.1621 91.7945C5.45488 96.5318 11.5961 99.9048 18.0969 99.997C18.1851 99.9982 18.273 99.999 18.3615 99.999C21.5435 99.999 24.6271 99.1832 27.2951 97.6331C30.4277 95.8132 32.9797 93.0361 34.8795 89.3787C37.5631 84.213 41.6037 79.2937 45.8814 74.0853C53.7848 64.4632 61.9572 54.5134 61.9572 42.0994C61.9568 31.2953 59.4141 20.8234 54.9807 13.3687Z" fill="url(#paint1_radial)"/>
<path d="M15.6826 53.7998C13.1842 55.1391 10.0752 56.8055 10.0752 61.9035C10.0752 65.0967 10.5891 67.5795 11.6457 69.4939C12.7623 71.5166 15.1068 73.9275 19.9354 73.9275C39.031 73.9275 52.051 51.7033 52.051 39.1418C52.051 31.7443 50.2553 23.9072 47.2477 18.1775C43.3775 10.8051 37.7455 6.9082 30.9603 6.9082C23.3822 6.9082 17.1113 11.0666 13.7559 18.3172C13.4162 19.0514 13.7357 19.9219 14.4701 20.2617C15.2045 20.6016 16.075 20.2814 16.4146 19.5475C19.3125 13.2859 24.4781 9.8375 30.9603 9.8375C34.884 9.8375 40.4445 11.5205 44.6533 19.5389C47.451 24.8682 49.1211 32.1963 49.1211 39.1416C49.1211 50.4307 37.0834 70.9979 19.9352 70.9979C15.1422 70.9979 13.0047 68.193 13.0047 61.9033C13.0047 58.5588 14.6207 57.6928 17.0666 56.3816C19.2922 55.1887 22.0621 53.7039 23.2006 49.8227C24.2359 46.292 22.0336 43.0602 19.702 39.6387C18.9506 38.5361 18.1713 37.3924 17.4551 36.1848C19.7184 37.3438 22.9369 38.5943 27.2855 39.4352C29.4379 39.8514 30.9371 40.7949 31.8686 42.3197C33.9186 45.6756 32.4889 50.71 32.475 50.7578C32.2461 51.5338 32.6896 52.3482 33.4656 52.5772C33.6039 52.6178 33.7434 52.6373 33.8805 52.6373C34.5131 52.6373 35.0969 52.224 35.285 51.5865C35.3603 51.3311 37.0986 45.2801 34.3773 40.8068C33.0121 38.5629 30.8133 37.1336 27.8418 36.559C20.6746 35.173 16.4557 32.4598 15.2127 31.2078C14.6797 29.368 14.4514 27.3705 14.7342 25.1625C14.8369 24.36 14.2697 23.6264 13.467 23.5234C12.6666 23.4219 11.9307 23.9877 11.8279 24.7902C10.9121 31.9426 14.4434 37.1244 17.2809 41.2881C19.3781 44.3656 21.0346 46.7965 20.3891 48.9979C19.5963 51.702 17.7826 52.6742 15.6826 53.7998Z" fill="url(#paint2_radial)"/>
<defs>
<radialGradient id="paint0_radial" cx="0" cy="0" r="1" gradientUnits="userSpaceOnUse" gradientTransform="translate(46.4709 -33.4414) rotate(98.2598) scale(116.823 34.7295)">
<stop stop-color="#027FFF"/>
<stop offset="1" stop-color="#0C2F83"/>
</radialGradient>
<radialGradient id="paint1_radial" cx="0" cy="0" r="1" gradientUnits="userSpaceOnUse" gradientTransform="translate(56.0255 -25.5618) rotate(98.5382) scale(133.592 41.0141)">
<stop stop-color="#027FFF"/>
<stop offset="1" stop-color="#0C2F83"/>
</radialGradient>
<radialGradient id="paint2_radial" cx="0" cy="0" r="1" gradientUnits="userSpaceOnUse" gradientTransform="translate(47.9558 -22.4128) rotate(97.6933) scale(102.287 28.3752)">
<stop stop-color="#027FFF"/>
<stop offset="1" stop-color="#0C2F83"/>
</radialGradient>
</defs>
</svg>
