<svg width="72" height="52" viewBox="0 0 72 52" fill="none" xmlns="http://www.w3.org/2000/svg">
<path d="M30.5326 8.29525C30.5326 8.93657 30.6357 9.54076 30.813 10.0975H23.9132C24.3009 8.53033 24.5009 6.33831 23.3812 4.38138C22.0986 2.13575 19.5106 0.863429 15.6957 0.599479C15.306 0.57061 14.5183 0.576796 14.1306 0.599479C10.326 0.824249 7.74015 2.0677 6.44515 4.29683C5.21819 6.40842 5.53163 8.83552 5.97499 10.4337C2.83853 11.308 0.535156 13.9495 0.535156 17.1046C0.535156 20.9669 3.96856 24.1075 8.18762 24.1075H15.0627L32.3204 33.1622L16.735 41.3384C15.5679 39.4619 13.5017 38.1978 11.1344 38.1978C7.48651 38.1978 4.5212 41.1631 4.5212 44.811C4.5212 48.4588 7.48651 51.4241 11.1344 51.4241C14.5905 51.4241 17.4032 48.7496 17.6898 45.3636H53.6281C53.9148 48.7475 56.7275 51.4241 60.1856 51.4241C63.8314 51.4241 66.7967 48.4588 66.7967 44.811C66.7967 41.1652 63.8314 38.1978 60.1856 38.1978C57.8122 38.1978 55.7459 39.4639 54.5788 41.3446L38.979 33.1601L56.2367 24.1054H63.8046C68.0237 24.1054 71.4571 20.9648 71.4571 17.1025C71.4571 13.2402 68.0237 10.0996 63.8046 10.0996H60.6269C60.8022 9.54282 60.9074 8.93863 60.9074 8.29731C60.9074 5.55265 59.1484 3.40188 56.9048 3.40188H34.531C32.2895 3.39982 30.5326 5.55059 30.5326 8.29525ZM9.12176 5.84959C9.86205 4.57315 11.6087 3.84523 14.3203 3.68439C14.607 3.66789 15.1885 3.66377 15.4813 3.68439C18.195 3.87204 19.9499 4.62058 20.6902 5.90733C21.4408 7.20852 21.082 9.00461 20.7067 10.0996H9.10938C8.76501 9.10153 8.31135 7.24358 9.12176 5.84959ZM11.1385 48.3269C9.19806 48.3269 7.61848 46.7473 7.61848 44.8069C7.61848 42.8664 9.19806 41.2868 11.1385 41.2868C12.4191 41.2868 13.5326 41.9838 14.1471 43.0108C14.0337 43.219 13.9677 43.4438 13.9574 43.683C13.9533 43.7284 13.9306 43.7655 13.9306 43.8109C13.9306 43.8232 13.9368 43.8356 13.9388 43.848C13.9409 43.881 13.9533 43.9098 13.9574 43.9428C14.0007 44.4192 14.2543 44.8172 14.6296 45.0708C14.4915 46.8875 12.9861 48.3269 11.1385 48.3269ZM60.1898 41.2889C62.1281 41.2889 63.7077 42.8685 63.7077 44.8089C63.7077 46.7494 62.1281 48.3289 60.1898 48.3289C58.3174 48.3289 56.7976 46.8566 56.6904 45.011C56.8141 44.9141 56.9151 44.7986 57.0038 44.6687C57.0636 44.5924 57.1523 44.5512 57.1976 44.4625C57.4451 43.9923 57.3997 43.4665 57.1688 43.0293C57.7812 41.9921 58.8989 41.2889 60.1898 41.2889ZM49.6854 42.2663H21.6202L35.6528 34.9046L49.6854 42.2663ZM35.6528 31.4114L21.7233 24.1033H49.5823L35.6528 31.4114ZM68.3681 17.1004C68.3681 19.2574 66.3225 21.0102 63.8088 21.0102H8.18969C5.67598 21.0102 3.63037 19.2553 3.63037 17.1004C3.63037 14.9455 5.67598 13.1907 8.18969 13.1907H34.5351H56.909H63.8108C66.3225 13.1907 68.3681 14.9435 68.3681 17.1004ZM57.8183 8.29525C57.8183 9.41291 57.2286 10.0975 56.909 10.0975H34.5351C34.2155 10.0975 33.6257 9.41291 33.6257 8.29525C33.6257 7.17759 34.2155 6.49297 34.5351 6.49297H56.909C57.2286 6.49297 57.8183 7.17759 57.8183 8.29525Z" fill="#2F8CF5"/>
</svg>
