<svg width="68" height="68" viewBox="0 0 68 68" fill="none" xmlns="http://www.w3.org/2000/svg">
<path d="M47.0088 1.01363C45.124 1.99931 45.5406 4.8079 46.4541 10.9653C47.3016 16.6629 48.5038 24.7608 47.6048 32.1266L32.5968 17.7888C35.4713 16.4402 39.1378 15.5411 44.0084 15.4772C44.8622 15.4669 45.5447 14.7658 45.5344 13.91C45.5241 13.0625 44.8333 12.3841 43.9878 12.3841C43.9816 12.3841 43.9754 12.3841 43.9672 12.3841C37.9046 12.4624 33.4505 13.7698 30.0583 15.6113C29.518 15.4484 28.9097 15.57 28.4932 16.0072C28.2746 16.234 28.1694 16.5165 28.1179 16.8032C25.7011 18.4528 23.9009 20.3562 22.4512 22.1543C22.2574 22.3935 22.0986 22.6533 21.9192 22.9008C21.9089 22.9111 21.8924 22.9152 21.8821 22.9276C21.8161 22.9956 21.7872 23.0823 21.7377 23.1586C19.8633 25.8104 18.6549 28.8706 17.9393 32.1266C17.8775 32.1741 17.8073 32.2009 17.7517 32.2586C17.2609 32.7721 17.2176 33.5247 17.5661 34.1083C16.2505 42.2722 17.5516 51.2465 18.4672 57.4946C18.7312 59.2928 19.0157 61.2353 19.1415 62.6643C15.4792 59.3588 7.81439 52.1125 4.68206 48.7884C7.19576 48.4832 11.5798 48.1636 15.4318 47.976C16.2855 47.9347 16.9433 47.2089 16.9021 46.3572C16.8588 45.5035 16.0711 44.8581 15.2833 44.8869C2.01576 45.5303 1.2899 46.2809 0.856853 46.7305C0.489799 47.1119 0.0175766 47.9368 0.957896 49.2009C2.28177 50.9784 7.73809 56.2244 10.8746 59.1917C17.8692 65.8152 19.3581 67.2257 20.2592 67.2257C20.5025 67.2257 20.7025 67.1226 20.9562 66.9906C22.8451 66.0091 22.4326 63.2005 21.5294 57.0451C20.7293 51.595 19.6241 43.9528 20.3272 36.855L34.6919 50.5783C31.9389 51.7414 28.5035 52.5085 24.0576 52.5724C23.2039 52.5848 22.5213 53.2879 22.5337 54.1417C22.5461 54.9892 23.2369 55.6656 24.0803 55.6656C24.0885 55.6656 24.0947 55.6656 24.103 55.6656C29.749 55.5831 33.9887 54.4303 37.286 52.7786C37.4221 52.8157 37.5582 52.857 37.6984 52.857C38.1046 52.857 38.5129 52.6961 38.8161 52.3786C38.9955 52.1909 39.0986 51.9661 39.1666 51.7331C41.8742 50.0401 43.8414 48.0151 45.4086 46.0933C45.5591 46.017 45.7076 45.9324 45.8313 45.8025C46.0479 45.5757 46.153 45.2973 46.2066 45.0107C48.145 42.3134 49.3802 39.1811 50.1061 35.8487C50.1226 35.8075 50.1226 35.7642 50.137 35.7229C51.9764 27.0972 50.5226 17.2279 49.5246 10.5137C49.2565 8.71352 48.9657 6.77102 48.84 5.33992C52.5064 8.63722 60.1836 15.869 63.3242 19.189C60.8105 19.4983 56.4285 19.8283 52.5765 20.0221C51.7248 20.0654 51.0691 20.7913 51.1103 21.645C51.1536 22.4966 51.8919 23.1359 52.7332 23.1111C65.9905 22.4409 66.7163 21.6903 67.1514 21.2408C67.5185 20.8593 67.9907 20.0345 67.0483 18.7704C65.7203 16.997 60.2537 11.7613 57.1152 8.79807C48.1904 0.378498 48.1966 0.392934 47.0088 1.01363ZM29.7964 19.3932L46.9408 35.7724C46.3819 38.1088 45.5591 40.3132 44.3549 42.2557L25.0742 23.837C26.3486 22.2863 27.8498 20.7335 29.7964 19.3932ZM37.5932 49.0709L20.8881 33.1144C21.3892 30.7162 22.1728 28.454 23.3132 26.4311L42.4907 44.7508C41.1772 46.285 39.6141 47.7924 37.5932 49.0709Z" fill="#2F8CF5"/>
</svg>
