<svg width="58" height="68" viewBox="0 0 58 68" fill="none" xmlns="http://www.w3.org/2000/svg">
<path d="M36.689 8.92129V28.4267C36.689 29.2804 37.3819 29.9733 38.2356 29.9733C39.0893 29.9733 39.7821 29.2804 39.7821 28.4267V12.0144H54.6393V23.1395H46.4962C45.6425 23.1395 44.9496 23.8324 44.9496 24.6861C44.9496 25.5398 45.6425 26.2327 46.4962 26.2327H54.6414V30.761H50.4142C49.5605 30.761 48.8676 31.4539 48.8676 32.3076C48.8676 33.1613 49.5605 33.8542 50.4142 33.8542H54.6414V39.4445H46.4962C45.6425 39.4445 44.9496 40.1374 44.9496 40.9911C44.9496 41.8448 45.6425 42.5377 46.4962 42.5377H54.6414V48.0703H50.4121C49.5584 48.0703 48.8655 48.7632 48.8655 49.6169C48.8655 50.4706 49.5584 51.1635 50.4121 51.1635H54.6414V57.9437C54.6414 57.9705 54.7033 60.6533 52.9753 62.437C51.8824 63.565 50.2451 64.1382 48.1088 64.1382H46.3148C43.1763 64.1382 41.1266 62.8969 40.2316 60.4471C40.0378 59.9151 39.5718 59.5789 39.0542 59.482C41.7329 56.0074 43.3412 51.7141 43.3412 47.0558C43.3412 38.1764 37.4417 30.2331 28.8531 27.3544V10.0389C30.9915 9.40176 32.5607 7.48194 32.5607 5.19095C32.5607 2.38442 30.2203 0.0996094 27.3437 0.0996094H16.39C13.5114 0.0996094 11.1709 2.38236 11.1709 5.19095C11.1709 7.27779 12.468 9.07389 14.3156 9.85748V27.507C5.86316 30.5239 0.264648 38.2444 0.264648 47.0558C0.264648 58.5499 9.92955 67.8995 21.8071 67.8995C27.9025 67.8995 33.4041 65.425 37.3262 61.4719C37.3303 61.4843 37.3282 61.4967 37.3324 61.5091C38.1139 63.6454 40.3203 67.2293 46.3189 67.2293H48.1129C51.1359 67.2293 53.53 66.3303 55.2312 64.5569C57.8685 61.806 57.7428 57.9829 57.7366 57.8839V49.6231C57.7366 49.619 57.7386 49.6169 57.7386 49.6128C57.7386 49.6087 57.7366 49.6066 57.7366 49.6025V32.3159C57.7366 32.3117 57.7386 32.3097 57.7386 32.3055C57.7386 32.3014 57.7366 32.2994 57.7366 32.2952V24.6943C57.7366 24.6902 57.7386 24.6881 57.7386 24.684C57.7386 24.6799 57.7366 24.6778 57.7366 24.6737V8.91923H36.689V8.92129ZM16.388 3.19276H27.3417C28.513 3.19276 29.4656 4.08978 29.4656 5.19095C29.4656 6.29211 28.513 7.18912 27.3417 7.18912H16.388C15.2167 7.18912 14.262 6.29211 14.262 5.19095C14.262 4.08978 15.2146 3.19276 16.388 3.19276ZM16.3055 30.1073L17.4066 29.7774V10.2823H25.76V29.6764L26.8963 29.9898C34.7569 32.1591 40.2502 39.1765 40.2502 47.0558C40.2502 48.293 40.1162 49.5014 39.8646 50.6686H3.74131C3.48973 49.5014 3.35567 48.293 3.35567 47.0558C3.35361 39.2425 8.55827 32.4313 16.3055 30.1073ZM21.805 64.8064C14.099 64.8064 7.48806 60.2326 4.73314 53.7617H38.8727C36.1158 60.2326 29.5089 64.8064 21.805 64.8064Z" fill="#2F8CF5"/>
</svg>
